<mxfile host="Electron" modified="2024-07-11T14:10:02.474Z" agent="Mozilla/5.0 (Windows NT 10.0; Win64; x64) AppleWebKit/537.36 (KHTML, like Gecko) draw.io/24.5.3 Chrome/124.0.6367.207 Electron/30.0.6 Safari/537.36" etag="cnXKvsxxbdI5PdweVG1u" version="24.5.3" type="device">
  <diagram name="Page-1" id="up-Z6HBfXXyBJXgFcccR">
    <mxGraphModel dx="1290" dy="1721" grid="1" gridSize="10" guides="1" tooltips="1" connect="1" arrows="1" fold="1" page="1" pageScale="1" pageWidth="850" pageHeight="1100" math="0" shadow="0">
      <root>
        <mxCell id="0" />
        <mxCell id="1" parent="0" />
        <mxCell id="wFvlpNws17r6Hu_MAnkD-1" value="Text" style="text;html=1;align=center;verticalAlign=middle;resizable=0;points=[];autosize=1;strokeColor=none;fillColor=none;" parent="1" vertex="1">
          <mxGeometry x="945" y="155" width="50" height="30" as="geometry" />
        </mxCell>
        <mxCell id="wFvlpNws17r6Hu_MAnkD-3" value="&lt;p style=&quot;margin:0px;margin-top:4px;text-align:center;&quot;&gt;&lt;b&gt;TemperatureControllerMenu&lt;/b&gt;&lt;/p&gt;&lt;hr size=&quot;1&quot; style=&quot;border-style:solid;&quot;&gt;&lt;p style=&quot;margin:0px;margin-left:4px;&quot;&gt;- temperatureViewRemote: TemperatureView&lt;/p&gt;&lt;p style=&quot;margin:0px;margin-left:4px;&quot;&gt;- temperatureModelRemote: TemperatureModel&lt;/p&gt;&lt;p style=&quot;margin:0px;margin-left:4px;&quot;&gt;- temperatureCommandProcessor: TemperatureCommandProcessor&lt;/p&gt;&lt;hr size=&quot;1&quot; style=&quot;border-style:solid;&quot;&gt;&lt;p style=&quot;margin:0px;margin-left:4px;&quot;&gt;TemperatureController(TemperatureViewRemote,&lt;/p&gt;&lt;p style=&quot;margin:0px;margin-left:4px;&quot;&gt;TemperatureModel,TemperatureCommandProcessor)&lt;/p&gt;&lt;p style=&quot;margin: 0px 0px 0px 4px;&quot;&gt;&lt;br&gt;&lt;/p&gt;" style="verticalAlign=top;align=left;overflow=fill;html=1;whiteSpace=wrap;" parent="1" vertex="1">
          <mxGeometry x="1280" y="10" width="290" height="180" as="geometry" />
        </mxCell>
        <mxCell id="wFvlpNws17r6Hu_MAnkD-9" value="" style="group" parent="1" connectable="0" vertex="1">
          <mxGeometry x="1430" y="240" width="210" height="180" as="geometry" />
        </mxCell>
        <mxCell id="wFvlpNws17r6Hu_MAnkD-10" value="&lt;p style=&quot;margin:0px;margin-top:4px;text-align:center;&quot;&gt;&lt;span style=&quot;text-align: left;&quot;&gt;&lt;b&gt;TemperatureModel&lt;/b&gt;&lt;/span&gt;&lt;br&gt;&lt;/p&gt;&lt;hr size=&quot;1&quot; style=&quot;border-style:solid;&quot;&gt;&lt;p style=&quot;margin:0px;margin-left:4px;&quot;&gt;- result: double&lt;/p&gt;&lt;p style=&quot;margin:0px;margin-left:4px;&quot;&gt;- conversionType: String&lt;/p&gt;&lt;hr size=&quot;1&quot; style=&quot;border-style:solid;&quot;&gt;&lt;p style=&quot;margin:0px;margin-left:4px;&quot;&gt;CalculatorModel()&lt;/p&gt;&lt;p style=&quot;margin:0px;margin-left:4px;&quot;&gt;+ f2c(double): void&lt;/p&gt;&lt;p style=&quot;margin:0px;margin-left:4px;&quot;&gt;+ c2f(double): void&lt;/p&gt;&lt;p style=&quot;margin:0px;margin-left:4px;&quot;&gt;+ getResult(): double&lt;/p&gt;&lt;p style=&quot;margin:0px;margin-left:4px;&quot;&gt;+ getConversionType():&amp;nbsp;&lt;/p&gt;&lt;p style=&quot;margin: 0px 0px 0px 4px;&quot;&gt;&lt;br&gt;&lt;/p&gt;" style="verticalAlign=top;align=left;overflow=fill;html=1;whiteSpace=wrap;" parent="wFvlpNws17r6Hu_MAnkD-9" vertex="1">
          <mxGeometry x="20" width="190" height="170" as="geometry" />
        </mxCell>
        <mxCell id="wFvlpNws17r6Hu_MAnkD-12" value="&lt;p style=&quot;margin:0px;margin-top:4px;text-align:center;&quot;&gt;&lt;b&gt;TemperatureView&lt;/b&gt;&lt;/p&gt;&lt;hr size=&quot;1&quot; style=&quot;border-style:solid;&quot;&gt;&lt;p style=&quot;margin:0px;margin-left:4px;&quot;&gt;- jLabelInputRemote1: JLabel&lt;/p&gt;&lt;p style=&quot;margin: 0px 0px 0px 4px;&quot;&gt;- jLabelInputRemote2: JLabel&lt;/p&gt;&lt;p style=&quot;margin:0px;margin-left:4px;&quot;&gt;&lt;span style=&quot;background-color: initial;&quot;&gt;- jTextFieldInputRemote1: JTextField&lt;/span&gt;&lt;/p&gt;&lt;p style=&quot;margin:0px;margin-left:4px;&quot;&gt;- jTextFieldInputRemote2: JTextField&lt;/p&gt;&lt;p style=&quot;margin:0px;margin-left:4px;&quot;&gt;- menuBarRemote: Jmenubar&lt;/p&gt;&lt;p style=&quot;margin:0px;margin-left:4px;&quot;&gt;- temperatureControllerRemote: TemperatureController&lt;/p&gt;&lt;p style=&quot;margin:0px;margin-left:4px;&quot;&gt;- temperatureModelRemote: TemperatureModel&lt;/p&gt;&lt;p style=&quot;margin:0px;margin-left:4px;&quot;&gt;- temperatureControllerEnterRemote: TemperatureControllerEnter&lt;br&gt;&lt;/p&gt;&lt;hr size=&quot;1&quot; style=&quot;border-style:solid;&quot;&gt;&lt;p style=&quot;margin:0px;margin-left:4px;&quot;&gt;+ CalculatorView()&lt;/p&gt;" style="verticalAlign=top;align=left;overflow=fill;html=1;whiteSpace=wrap;" parent="1" vertex="1">
          <mxGeometry x="880" width="270" height="210" as="geometry" />
        </mxCell>
        <mxCell id="wFvlpNws17r6Hu_MAnkD-14" value="&lt;p style=&quot;margin:0px;margin-top:4px;text-align:center;&quot;&gt;&lt;b&gt;TempCommandProcessor&lt;/b&gt;&lt;/p&gt;&lt;hr size=&quot;1&quot; style=&quot;border-style:solid;&quot;&gt;&lt;p style=&quot;margin:0px;margin-left:4px;&quot;&gt;+ field: Type&lt;/p&gt;&lt;hr size=&quot;1&quot; style=&quot;border-style:solid;&quot;&gt;&lt;p style=&quot;margin:0px;margin-left:4px;&quot;&gt;+ execute(Command): void&lt;/p&gt;" style="verticalAlign=top;align=left;overflow=fill;html=1;whiteSpace=wrap;" parent="1" vertex="1">
          <mxGeometry x="1070" y="250" width="160" height="90" as="geometry" />
        </mxCell>
        <mxCell id="wFvlpNws17r6Hu_MAnkD-16" value="&lt;p style=&quot;margin:0px;margin-top:4px;text-align:center;&quot;&gt;&lt;b&gt;Abstract Class&lt;/b&gt;&lt;/p&gt;&lt;p style=&quot;margin:0px;margin-top:4px;text-align:center;&quot;&gt;&lt;b&gt;&lt;i&gt;TemperatureCommand&lt;/i&gt;&lt;/b&gt;&lt;/p&gt;&lt;hr size=&quot;1&quot; style=&quot;border-style:solid;&quot;&gt;&lt;p style=&quot;margin:0px;margin-left:4px;&quot;&gt;&amp;nbsp;#calCulatorModelRemote: CalculatorModel&lt;/p&gt;&lt;p style=&quot;margin:0px;margin-left:4px;&quot;&gt;#num1:double&lt;/p&gt;&lt;hr size=&quot;1&quot; style=&quot;border-style:solid;&quot;&gt;&lt;p style=&quot;margin:0px;margin-left:4px;&quot;&gt;+ &lt;i&gt;execute(): void&lt;/i&gt;&lt;/p&gt;" style="verticalAlign=top;align=left;overflow=fill;html=1;whiteSpace=wrap;" parent="1" vertex="1">
          <mxGeometry x="1230" y="370" width="160" height="135" as="geometry" />
        </mxCell>
        <mxCell id="wFvlpNws17r6Hu_MAnkD-18" value="&lt;p style=&quot;margin:0px;margin-top:4px;text-align:center;&quot;&gt;&lt;b&gt;ConvertCtoF&lt;/b&gt;&lt;/p&gt;&lt;hr size=&quot;1&quot; style=&quot;border-style:solid;&quot;&gt;&lt;p style=&quot;margin:0px;margin-left:4px;&quot;&gt;+ field: Type&lt;/p&gt;&lt;hr size=&quot;1&quot; style=&quot;border-style:solid;&quot;&gt;&lt;p style=&quot;margin:0px;margin-left:4px;&quot;&gt;+&amp;nbsp;&lt;i&gt;execute(): void&lt;/i&gt;&lt;br&gt;&lt;/p&gt;" style="verticalAlign=top;align=left;overflow=fill;html=1;whiteSpace=wrap;" parent="1" vertex="1">
          <mxGeometry x="1150" y="550" width="160" height="90" as="geometry" />
        </mxCell>
        <mxCell id="wFvlpNws17r6Hu_MAnkD-19" value="Extends" style="endArrow=block;endSize=16;endFill=0;html=1;rounded=0;exitX=0.438;exitY=-0.013;exitDx=0;exitDy=0;exitPerimeter=0;entryX=0.5;entryY=1;entryDx=0;entryDy=0;" parent="1" source="wFvlpNws17r6Hu_MAnkD-18" target="wFvlpNws17r6Hu_MAnkD-16" edge="1">
          <mxGeometry width="160" relative="1" as="geometry">
            <mxPoint x="1060" y="370" as="sourcePoint" />
            <mxPoint x="1220" y="370" as="targetPoint" />
          </mxGeometry>
        </mxCell>
        <mxCell id="wFvlpNws17r6Hu_MAnkD-20" value="&lt;p style=&quot;margin:0px;margin-top:4px;text-align:center;&quot;&gt;&lt;b&gt;ConvertFtoC&lt;/b&gt;&lt;/p&gt;&lt;hr size=&quot;1&quot; style=&quot;border-style:solid;&quot;&gt;&lt;p style=&quot;margin:0px;margin-left:4px;&quot;&gt;+ field: Type&lt;/p&gt;&lt;hr size=&quot;1&quot; style=&quot;border-style:solid;&quot;&gt;&lt;p style=&quot;margin:0px;margin-left:4px;&quot;&gt;+&amp;nbsp;&lt;i&gt;execute(): void&lt;/i&gt;&lt;br&gt;&lt;/p&gt;" style="verticalAlign=top;align=left;overflow=fill;html=1;whiteSpace=wrap;" parent="1" vertex="1">
          <mxGeometry x="1340" y="550" width="160" height="90" as="geometry" />
        </mxCell>
        <mxCell id="wFvlpNws17r6Hu_MAnkD-21" value="Extends" style="endArrow=block;endSize=16;endFill=0;html=1;rounded=0;entryX=0.58;entryY=0.987;entryDx=0;entryDy=0;entryPerimeter=0;" parent="1" source="wFvlpNws17r6Hu_MAnkD-20" target="wFvlpNws17r6Hu_MAnkD-16" edge="1">
          <mxGeometry width="160" relative="1" as="geometry">
            <mxPoint x="1060" y="370" as="sourcePoint" />
            <mxPoint x="1220" y="370" as="targetPoint" />
          </mxGeometry>
        </mxCell>
        <mxCell id="wFvlpNws17r6Hu_MAnkD-23" style="edgeStyle=orthogonalEdgeStyle;rounded=0;orthogonalLoop=1;jettySize=auto;html=1;" parent="1" source="wFvlpNws17r6Hu_MAnkD-25" target="wFvlpNws17r6Hu_MAnkD-14" edge="1">
          <mxGeometry relative="1" as="geometry" />
        </mxCell>
        <mxCell id="wFvlpNws17r6Hu_MAnkD-24" style="edgeStyle=orthogonalEdgeStyle;rounded=0;orthogonalLoop=1;jettySize=auto;html=1;" parent="1" source="wFvlpNws17r6Hu_MAnkD-25" target="wFvlpNws17r6Hu_MAnkD-26" edge="1">
          <mxGeometry relative="1" as="geometry" />
        </mxCell>
        <mxCell id="wFvlpNws17r6Hu_MAnkD-25" value="singleton pattern" style="whiteSpace=wrap;html=1;fillColor=#e3c800;fontColor=#000000;strokeColor=#B09500;" parent="1" vertex="1">
          <mxGeometry x="900" y="275" width="120" height="40" as="geometry" />
        </mxCell>
        <mxCell id="wFvlpNws17r6Hu_MAnkD-26" value="&lt;p style=&quot;margin:0px;margin-top:4px;text-align:center;&quot;&gt;&lt;b&gt;A&lt;/b&gt;&lt;/p&gt;&lt;hr size=&quot;1&quot; style=&quot;border-style:solid;&quot;&gt;&lt;p style=&quot;margin:0px;margin-left:4px;&quot;&gt;&lt;u&gt;- aRemote: A static&lt;/u&gt;&lt;/p&gt;&lt;hr size=&quot;1&quot; style=&quot;border-style:solid;&quot;&gt;&lt;p style=&quot;margin:0px;margin-left:4px;&quot;&gt;- A()&lt;/p&gt;&lt;p style=&quot;margin:0px;margin-left:4px;&quot;&gt;&lt;u&gt;+ makeA(): A&lt;/u&gt;&lt;/p&gt;" style="verticalAlign=top;align=left;overflow=fill;html=1;whiteSpace=wrap;" parent="1" vertex="1">
          <mxGeometry x="800" y="370" width="160" height="90" as="geometry" />
        </mxCell>
        <mxCell id="49qOWtB5suAqd4cI9i9r-4" value="" style="endArrow=open;endFill=1;endSize=12;html=1;rounded=0;entryX=0.997;entryY=0.608;entryDx=0;entryDy=0;entryPerimeter=0;exitX=-0.001;exitY=0.66;exitDx=0;exitDy=0;exitPerimeter=0;" parent="1" source="wFvlpNws17r6Hu_MAnkD-3" target="wFvlpNws17r6Hu_MAnkD-12" edge="1">
          <mxGeometry width="160" relative="1" as="geometry">
            <mxPoint x="1270" y="120" as="sourcePoint" />
            <mxPoint x="1430" y="120" as="targetPoint" />
          </mxGeometry>
        </mxCell>
        <mxCell id="49qOWtB5suAqd4cI9i9r-7" value="Use" style="endArrow=open;endSize=12;dashed=1;html=1;rounded=0;entryX=0;entryY=0;entryDx=0;entryDy=0;" parent="1" target="wFvlpNws17r6Hu_MAnkD-16" edge="1">
          <mxGeometry width="160" relative="1" as="geometry">
            <mxPoint x="1176" y="340" as="sourcePoint" />
            <mxPoint x="1200" y="320" as="targetPoint" />
          </mxGeometry>
        </mxCell>
        <mxCell id="2xPNxp0HEUkfaQweUWbv-1" value="" style="endArrow=open;endFill=1;endSize=12;html=1;rounded=0;exitX=1.006;exitY=0.404;exitDx=0;exitDy=0;exitPerimeter=0;entryX=-0.01;entryY=0.407;entryDx=0;entryDy=0;entryPerimeter=0;" parent="1" source="wFvlpNws17r6Hu_MAnkD-12" target="wFvlpNws17r6Hu_MAnkD-3" edge="1">
          <mxGeometry width="160" relative="1" as="geometry">
            <mxPoint x="1160" y="80" as="sourcePoint" />
            <mxPoint x="1320" y="80" as="targetPoint" />
          </mxGeometry>
        </mxCell>
        <mxCell id="2xPNxp0HEUkfaQweUWbv-2" value="" style="endArrow=open;endFill=1;endSize=12;html=1;rounded=0;exitX=1;exitY=1;exitDx=0;exitDy=0;" parent="1" source="wFvlpNws17r6Hu_MAnkD-12" edge="1">
          <mxGeometry width="160" relative="1" as="geometry">
            <mxPoint x="1162" y="95" as="sourcePoint" />
            <mxPoint x="1450" y="240" as="targetPoint" />
          </mxGeometry>
        </mxCell>
        <mxCell id="2xPNxp0HEUkfaQweUWbv-3" value="" style="endArrow=open;endFill=1;endSize=12;html=1;rounded=0;exitX=0.75;exitY=1;exitDx=0;exitDy=0;entryX=0.345;entryY=-0.014;entryDx=0;entryDy=0;entryPerimeter=0;" parent="1" source="wFvlpNws17r6Hu_MAnkD-3" target="wFvlpNws17r6Hu_MAnkD-10" edge="1">
          <mxGeometry width="160" relative="1" as="geometry">
            <mxPoint x="1162" y="95" as="sourcePoint" />
            <mxPoint x="1287" y="93" as="targetPoint" />
          </mxGeometry>
        </mxCell>
        <mxCell id="2xPNxp0HEUkfaQweUWbv-4" value="" style="endArrow=open;endFill=1;endSize=12;html=1;rounded=0;exitX=0;exitY=1;exitDx=0;exitDy=0;entryX=1;entryY=0;entryDx=0;entryDy=0;" parent="1" source="wFvlpNws17r6Hu_MAnkD-3" target="wFvlpNws17r6Hu_MAnkD-14" edge="1">
          <mxGeometry width="160" relative="1" as="geometry">
            <mxPoint x="1508" y="200" as="sourcePoint" />
            <mxPoint x="1526" y="248" as="targetPoint" />
          </mxGeometry>
        </mxCell>
        <mxCell id="2xPNxp0HEUkfaQweUWbv-5" value="" style="endArrow=open;endFill=1;endSize=12;html=1;rounded=0;exitX=1;exitY=0;exitDx=0;exitDy=0;entryX=-0.022;entryY=0.645;entryDx=0;entryDy=0;entryPerimeter=0;" parent="1" source="wFvlpNws17r6Hu_MAnkD-16" target="wFvlpNws17r6Hu_MAnkD-10" edge="1">
          <mxGeometry width="160" relative="1" as="geometry">
            <mxPoint x="1507" y="200" as="sourcePoint" />
            <mxPoint x="1526" y="248" as="targetPoint" />
          </mxGeometry>
        </mxCell>
        <mxCell id="BLmsHRv0G8DtqINkWbVy-1" value="&lt;p style=&quot;margin:0px;margin-top:4px;text-align:center;&quot;&gt;&lt;b&gt;TemperatureControllerEnter&lt;/b&gt;&lt;/p&gt;&lt;hr size=&quot;1&quot; style=&quot;border-style:solid;&quot;&gt;&lt;p style=&quot;margin:0px;margin-left:4px;&quot;&gt;- temperatureViewRemote: TemperatureView&lt;/p&gt;&lt;p style=&quot;margin:0px;margin-left:4px;&quot;&gt;- temperatureModelRemote: TemperatureModel&lt;/p&gt;&lt;p style=&quot;margin:0px;margin-left:4px;&quot;&gt;- temperatureCommandProcessor: TemperatureCommandProcessor&lt;/p&gt;&lt;hr size=&quot;1&quot; style=&quot;border-style:solid;&quot;&gt;&lt;p style=&quot;margin:0px;margin-left:4px;&quot;&gt;TemperatureController(TemperatureViewRemote,&lt;/p&gt;&lt;p style=&quot;margin:0px;margin-left:4px;&quot;&gt;TemperatureModel,TemperatureCommandProcessor)&lt;/p&gt;&lt;p style=&quot;margin: 0px 0px 0px 4px;&quot;&gt;&lt;br&gt;&lt;/p&gt;" style="verticalAlign=top;align=left;overflow=fill;html=1;whiteSpace=wrap;" parent="1" vertex="1">
          <mxGeometry x="1275" y="-190" width="290" height="180" as="geometry" />
        </mxCell>
        <mxCell id="tyiKqweZCx6aE9xmvAbU-1" value="" style="endArrow=open;endFill=1;endSize=12;html=1;rounded=0;exitX=0.977;exitY=0.001;exitDx=0;exitDy=0;exitPerimeter=0;entryX=0;entryY=0.75;entryDx=0;entryDy=0;" edge="1" parent="1" source="wFvlpNws17r6Hu_MAnkD-12" target="BLmsHRv0G8DtqINkWbVy-1">
          <mxGeometry width="160" relative="1" as="geometry">
            <mxPoint x="1162" y="95" as="sourcePoint" />
            <mxPoint x="1287" y="93" as="targetPoint" />
          </mxGeometry>
        </mxCell>
        <mxCell id="tyiKqweZCx6aE9xmvAbU-2" value="" style="endArrow=open;endFill=1;endSize=12;html=1;rounded=0;exitX=1;exitY=0.75;exitDx=0;exitDy=0;entryX=1;entryY=0;entryDx=0;entryDy=0;" edge="1" parent="1" source="BLmsHRv0G8DtqINkWbVy-1" target="wFvlpNws17r6Hu_MAnkD-10">
          <mxGeometry width="160" relative="1" as="geometry">
            <mxPoint x="1154" y="10" as="sourcePoint" />
            <mxPoint x="1285" y="-45" as="targetPoint" />
            <Array as="points">
              <mxPoint x="1640" y="-55" />
            </Array>
          </mxGeometry>
        </mxCell>
        <mxCell id="tyiKqweZCx6aE9xmvAbU-4" value="&lt;p style=&quot;margin:0px;margin-top:4px;text-align:center;&quot;&gt;&lt;i&gt;&amp;lt;&amp;lt;Interface&amp;gt;&amp;gt;&lt;/i&gt;&lt;br&gt;&lt;b&gt;Subcriber&lt;/b&gt;&lt;/p&gt;&lt;hr size=&quot;1&quot; style=&quot;border-style:solid;&quot;&gt;&lt;p style=&quot;margin:0px;margin-left:4px;&quot;&gt;+&amp;nbsp;&amp;nbsp;&lt;/p&gt;&lt;hr size=&quot;1&quot; style=&quot;border-style:solid;&quot;&gt;&lt;p style=&quot;margin:0px;margin-left:4px;&quot;&gt;+&lt;i&gt; update(): void&lt;/i&gt;&lt;br&gt;+&lt;/p&gt;" style="verticalAlign=top;align=left;overflow=fill;html=1;whiteSpace=wrap;" vertex="1" parent="1">
          <mxGeometry x="640" y="50" width="130" height="100" as="geometry" />
        </mxCell>
        <mxCell id="tyiKqweZCx6aE9xmvAbU-5" value="" style="endArrow=block;dashed=1;endFill=0;endSize=12;html=1;rounded=0;entryX=1;entryY=0.25;entryDx=0;entryDy=0;exitX=0;exitY=0.25;exitDx=0;exitDy=0;" edge="1" parent="1" source="wFvlpNws17r6Hu_MAnkD-12" target="tyiKqweZCx6aE9xmvAbU-4">
          <mxGeometry width="160" relative="1" as="geometry">
            <mxPoint x="1210" y="350" as="sourcePoint" />
            <mxPoint x="1370" y="350" as="targetPoint" />
          </mxGeometry>
        </mxCell>
        <mxCell id="tyiKqweZCx6aE9xmvAbU-6" value="&lt;p style=&quot;margin:0px;margin-top:4px;text-align:center;&quot;&gt;&lt;b&gt;Publisher&lt;/b&gt;&lt;/p&gt;&lt;hr size=&quot;1&quot; style=&quot;border-style:solid;&quot;&gt;&lt;p style=&quot;margin:0px;margin-left:4px;&quot;&gt;+ subcribers: List&amp;lt;Subcriber&amp;gt;&lt;/p&gt;&lt;hr size=&quot;1&quot; style=&quot;border-style:solid;&quot;&gt;&lt;p style=&quot;margin:0px;margin-left:4px;&quot;&gt;+ subcribe(Subcriber): void&lt;/p&gt;&lt;p style=&quot;margin:0px;margin-left:4px;&quot;&gt;+ unSubscribe(Subcriber): void&lt;/p&gt;&lt;p style=&quot;margin:0px;margin-left:4px;&quot;&gt;+ notifySubcribers(): void&lt;/p&gt;" style="verticalAlign=top;align=left;overflow=fill;html=1;whiteSpace=wrap;" vertex="1" parent="1">
          <mxGeometry x="1540" y="540" width="200" height="110" as="geometry" />
        </mxCell>
        <mxCell id="tyiKqweZCx6aE9xmvAbU-7" value="Extends" style="endArrow=block;endSize=16;endFill=0;html=1;rounded=0;entryX=0.362;entryY=0.009;entryDx=0;entryDy=0;exitX=0.842;exitY=1;exitDx=0;exitDy=0;exitPerimeter=0;entryPerimeter=0;" edge="1" parent="1" source="wFvlpNws17r6Hu_MAnkD-10" target="tyiKqweZCx6aE9xmvAbU-6">
          <mxGeometry width="160" relative="1" as="geometry">
            <mxPoint x="1382" y="560" as="sourcePoint" />
            <mxPoint x="1333" y="513" as="targetPoint" />
          </mxGeometry>
        </mxCell>
        <mxCell id="tyiKqweZCx6aE9xmvAbU-8" value="Use" style="endArrow=open;endSize=12;dashed=1;html=1;rounded=0;exitX=0.298;exitY=1.032;exitDx=0;exitDy=0;exitPerimeter=0;entryX=0.5;entryY=1;entryDx=0;entryDy=0;" edge="1" parent="1" source="tyiKqweZCx6aE9xmvAbU-6" target="tyiKqweZCx6aE9xmvAbU-4">
          <mxGeometry width="160" relative="1" as="geometry">
            <mxPoint x="1250" y="730" as="sourcePoint" />
            <mxPoint x="1410" y="730" as="targetPoint" />
            <Array as="points">
              <mxPoint x="1600" y="680" />
              <mxPoint x="700" y="680" />
            </Array>
          </mxGeometry>
        </mxCell>
      </root>
    </mxGraphModel>
  </diagram>
</mxfile>
